<svg width="80" height="80" viewBox="0 0 80 80" fill="none" xmlns="http://www.w3.org/2000/svg">
<path d="M68.3 15.7C60.5 7.9 51.0667 4 40 4C28.9333 4 19.5 7.9 11.7 15.7C4.36667 23.0333 0.483336 31.8 0.0500031 42C0.483336 52.2 4.36667 60.9667 11.7 68.3C19.5 76.1 28.9333 80 40 80C51.0667 80 60.5 76.1 68.3 68.3C75.6333 60.9667 79.5167 52.2 79.95 42C79.5167 31.8 75.6333 23.0333 68.3 15.7Z" fill="url(#paint0_linear_8_957)"/>
<path d="M68.3 11.7C60.5 3.9 51.0667 0 40 0C28.9333 0 19.5 3.9 11.7 11.7C3.9 19.5 0 28.9333 0 40C0 40.6667 0.0166659 41.3333 0.0499992 42C0.483333 31.8 4.36667 23.0333 11.7 15.7C19.5 7.9 28.9333 4 40 4C51.0667 4 60.5 7.9 68.3 15.7C75.6333 23.0333 79.5167 31.8 79.95 42C79.9833 41.3333 80 40.6667 80 40C80 28.9333 76.1 19.5 68.3 11.7Z" fill="url(#paint1_linear_8_957)"/>
<path d="M50.4 20.44C50.8 20.1467 51.2667 20 51.8 20H59.12C59.6267 20 60.0667 20.1467 60.44 20.44L60.6 20.56C61 20.9867 61.2 21.48 61.2 22.04V29.44C61.2 29.9467 61 30.4267 60.6 30.88L41.36 50.12L42.8 51.56L43.04 51.28C43.12 51.1467 43.2533 51.0667 43.44 51.04L43.92 50.92H44.52C45.0533 50.92 45.5333 51.12 45.96 51.52L46.08 51.64C46.4 52.04 46.56 52.48 46.56 52.96V57.88C46.56 58.3867 46.4 58.8267 46.08 59.2L45.84 59.44C45.44 59.76 45 59.92 44.52 59.92H39.6C38.16 59.92 37.4667 59.24 37.52 57.88V57.4C37.52 57.0267 37.6533 56.72 37.92 56.48L38.28 56.08L38 55.84L35.16 53.08L31.92 56.32V61.12C31.92 61.68 31.7067 62.16 31.28 62.56C30.88 62.9867 30.4 63.2 29.84 63.2H20.12C18.7067 63.2 18 62.5067 18 61.12V51.32C18 49.9333 18.7067 49.24 20.12 49.24H24.84L28.08 46L25.08 42.92L24.68 43.36C24.44 43.5467 24.1333 43.64 23.76 43.64H23.36C21.92 43.64 21.2133 42.96 21.24 41.6V36.68C21.24 35.2933 21.9467 34.6 23.36 34.6H28.28C28.7867 34.6 29.2667 34.8133 29.72 35.24L29.84 35.36C30.1067 35.76 30.24 36.2 30.24 36.68V37.24C30.24 37.56 30.12 37.8533 29.88 38.12L29.6 38.44L31.04 39.88L50.28 20.56L50.4 20.44Z" fill="white"/>
<defs>
<linearGradient id="paint0_linear_8_957" x1="-50" y1="-1.09798e-07" x2="-50" y2="80" gradientUnits="userSpaceOnUse">
<stop stop-color="#7BAAEB"/>
<stop offset="1" stop-color="#6C75E9"/>
</linearGradient>
<linearGradient id="paint1_linear_8_957" x1="-50.25" y1="-0.25" x2="-50.25" y2="43.25" gradientUnits="userSpaceOnUse">
<stop stop-color="#95C2F0"/>
<stop offset="1" stop-color="#6B8EE9"/>
</linearGradient>
</defs>
</svg>
